<mxfile modified="2022-07-11T11:48:27.847Z" host="app.diagrams.net" agent="5.0 (Macintosh; Intel Mac OS X 10_15_7) AppleWebKit/605.1.15 (KHTML, like Gecko) Version/15.5 Safari/605.1.15" etag="XxZH2o4LllhLhgUVOaqY" version="20.0.4" type="github">
  <diagram id="sUq814yLr6O-fFWm4l8_" name="Page-2">
    <mxGraphModel dx="1426" dy="825" grid="1" gridSize="10" guides="1" tooltips="1" connect="1" arrows="1" fold="1" page="1" pageScale="1" pageWidth="850" pageHeight="1100" math="0" shadow="0">
      <root>
        <mxCell id="0" />
        <mxCell id="1" parent="0" />
        <mxCell id="_QfsnRnrjYnlIOJWHaD2-1" value="Region" style="points=[[0,0],[0.25,0],[0.5,0],[0.75,0],[1,0],[1,0.25],[1,0.5],[1,0.75],[1,1],[0.75,1],[0.5,1],[0.25,1],[0,1],[0,0.75],[0,0.5],[0,0.25]];outlineConnect=0;gradientColor=none;html=1;whiteSpace=wrap;fontSize=12;fontStyle=0;container=1;pointerEvents=0;collapsible=0;recursiveResize=0;shape=mxgraph.aws4.group;grIcon=mxgraph.aws4.group_region;strokeColor=#147EBA;fillColor=none;verticalAlign=top;align=left;spacingLeft=30;fontColor=#147EBA;dashed=1;" vertex="1" parent="1">
          <mxGeometry x="70" y="50" width="680" height="660" as="geometry" />
        </mxCell>
        <mxCell id="_QfsnRnrjYnlIOJWHaD2-2" value="VPC" style="points=[[0,0],[0.25,0],[0.5,0],[0.75,0],[1,0],[1,0.25],[1,0.5],[1,0.75],[1,1],[0.75,1],[0.5,1],[0.25,1],[0,1],[0,0.75],[0,0.5],[0,0.25]];outlineConnect=0;gradientColor=none;html=1;whiteSpace=wrap;fontSize=12;fontStyle=0;container=1;pointerEvents=0;collapsible=0;recursiveResize=0;shape=mxgraph.aws4.group;grIcon=mxgraph.aws4.group_vpc;strokeColor=#248814;fillColor=none;verticalAlign=top;align=left;spacingLeft=30;fontColor=#AAB7B8;dashed=0;" vertex="1" parent="1">
          <mxGeometry x="120" y="100" width="580" height="560" as="geometry" />
        </mxCell>
        <mxCell id="_QfsnRnrjYnlIOJWHaD2-25" value="Public subnet" style="points=[[0,0],[0.25,0],[0.5,0],[0.75,0],[1,0],[1,0.25],[1,0.5],[1,0.75],[1,1],[0.75,1],[0.5,1],[0.25,1],[0,1],[0,0.75],[0,0.5],[0,0.25]];outlineConnect=0;gradientColor=none;html=1;whiteSpace=wrap;fontSize=12;fontStyle=0;container=1;pointerEvents=0;collapsible=0;recursiveResize=0;shape=mxgraph.aws4.group;grIcon=mxgraph.aws4.group_security_group;grStroke=0;strokeColor=#248814;fillColor=#E9F3E6;verticalAlign=top;align=left;spacingLeft=30;fontColor=#248814;dashed=0;" vertex="1" parent="_QfsnRnrjYnlIOJWHaD2-2">
          <mxGeometry x="310" y="30" width="250" height="210" as="geometry" />
        </mxCell>
        <mxCell id="_QfsnRnrjYnlIOJWHaD2-26" value="" style="sketch=0;outlineConnect=0;fontColor=#232F3E;gradientColor=none;fillColor=#4D27AA;strokeColor=none;dashed=0;verticalLabelPosition=bottom;verticalAlign=top;align=center;html=1;fontSize=12;fontStyle=0;aspect=fixed;pointerEvents=1;shape=mxgraph.aws4.nat_gateway;" vertex="1" parent="_QfsnRnrjYnlIOJWHaD2-25">
          <mxGeometry x="80" y="66" width="78" height="78" as="geometry" />
        </mxCell>
        <mxCell id="_QfsnRnrjYnlIOJWHaD2-3" value="Private subnet" style="points=[[0,0],[0.25,0],[0.5,0],[0.75,0],[1,0],[1,0.25],[1,0.5],[1,0.75],[1,1],[0.75,1],[0.5,1],[0.25,1],[0,1],[0,0.75],[0,0.5],[0,0.25]];outlineConnect=0;gradientColor=none;html=1;whiteSpace=wrap;fontSize=12;fontStyle=0;container=1;pointerEvents=0;collapsible=0;recursiveResize=0;shape=mxgraph.aws4.group;grIcon=mxgraph.aws4.group_security_group;grStroke=0;strokeColor=#147EBA;fillColor=#E6F2F8;verticalAlign=top;align=left;spacingLeft=30;fontColor=#147EBA;dashed=0;" vertex="1" parent="_QfsnRnrjYnlIOJWHaD2-2">
          <mxGeometry x="30" y="270" width="250" height="230" as="geometry" />
        </mxCell>
        <mxCell id="_QfsnRnrjYnlIOJWHaD2-10" value="" style="sketch=0;outlineConnect=0;fontColor=#232F3E;gradientColor=none;fillColor=#D45B07;strokeColor=none;dashed=0;verticalLabelPosition=bottom;verticalAlign=top;align=center;html=1;fontSize=12;fontStyle=0;aspect=fixed;pointerEvents=1;shape=mxgraph.aws4.container_1;" vertex="1" parent="_QfsnRnrjYnlIOJWHaD2-3">
          <mxGeometry x="101" y="99.5" width="48" height="31" as="geometry" />
        </mxCell>
        <mxCell id="_QfsnRnrjYnlIOJWHaD2-11" value="" style="sketch=0;outlineConnect=0;fontColor=#232F3E;gradientColor=none;fillColor=#D45B07;strokeColor=none;dashed=0;verticalLabelPosition=bottom;verticalAlign=top;align=center;html=1;fontSize=12;fontStyle=0;aspect=fixed;pointerEvents=1;shape=mxgraph.aws4.ecs_service;" vertex="1" parent="_QfsnRnrjYnlIOJWHaD2-3">
          <mxGeometry x="20" y="82.5" width="39" height="48" as="geometry" />
        </mxCell>
        <mxCell id="_QfsnRnrjYnlIOJWHaD2-12" value="" style="sketch=0;outlineConnect=0;fontColor=#232F3E;gradientColor=none;fillColor=#D45B07;strokeColor=none;dashed=0;verticalLabelPosition=bottom;verticalAlign=top;align=center;html=1;fontSize=12;fontStyle=0;aspect=fixed;pointerEvents=1;shape=mxgraph.aws4.container_2;" vertex="1" parent="_QfsnRnrjYnlIOJWHaD2-3">
          <mxGeometry x="190" y="99.5" width="48" height="31" as="geometry" />
        </mxCell>
        <mxCell id="_QfsnRnrjYnlIOJWHaD2-16" value="" style="rounded=1;arcSize=10;dashed=1;strokeColor=#F59D56;fillColor=none;gradientColor=none;dashPattern=8 4;strokeWidth=2;" vertex="1" parent="_QfsnRnrjYnlIOJWHaD2-3">
          <mxGeometry x="10" y="60" width="510" height="154.75" as="geometry" />
        </mxCell>
        <mxCell id="_QfsnRnrjYnlIOJWHaD2-17" value="Private subnet" style="points=[[0,0],[0.25,0],[0.5,0],[0.75,0],[1,0],[1,0.25],[1,0.5],[1,0.75],[1,1],[0.75,1],[0.5,1],[0.25,1],[0,1],[0,0.75],[0,0.5],[0,0.25]];outlineConnect=0;gradientColor=none;html=1;whiteSpace=wrap;fontSize=12;fontStyle=0;container=1;pointerEvents=0;collapsible=0;recursiveResize=0;shape=mxgraph.aws4.group;grIcon=mxgraph.aws4.group_security_group;grStroke=0;strokeColor=#147EBA;fillColor=#E6F2F8;verticalAlign=top;align=left;spacingLeft=30;fontColor=#147EBA;dashed=0;" vertex="1" parent="_QfsnRnrjYnlIOJWHaD2-2">
          <mxGeometry x="310" y="270" width="250" height="230" as="geometry" />
        </mxCell>
        <mxCell id="_QfsnRnrjYnlIOJWHaD2-18" value="" style="sketch=0;outlineConnect=0;fontColor=#232F3E;gradientColor=none;fillColor=#D45B07;strokeColor=none;dashed=0;verticalLabelPosition=bottom;verticalAlign=top;align=center;html=1;fontSize=12;fontStyle=0;aspect=fixed;pointerEvents=1;shape=mxgraph.aws4.container_1;" vertex="1" parent="_QfsnRnrjYnlIOJWHaD2-17">
          <mxGeometry x="101" y="99.5" width="48" height="31" as="geometry" />
        </mxCell>
        <mxCell id="_QfsnRnrjYnlIOJWHaD2-19" value="" style="sketch=0;outlineConnect=0;fontColor=#232F3E;gradientColor=none;fillColor=#D45B07;strokeColor=none;dashed=0;verticalLabelPosition=bottom;verticalAlign=top;align=center;html=1;fontSize=12;fontStyle=0;aspect=fixed;pointerEvents=1;shape=mxgraph.aws4.ecs_service;" vertex="1" parent="_QfsnRnrjYnlIOJWHaD2-17">
          <mxGeometry x="20" y="82.5" width="39" height="48" as="geometry" />
        </mxCell>
        <mxCell id="_QfsnRnrjYnlIOJWHaD2-20" value="" style="sketch=0;outlineConnect=0;fontColor=#232F3E;gradientColor=none;fillColor=#D45B07;strokeColor=none;dashed=0;verticalLabelPosition=bottom;verticalAlign=top;align=center;html=1;fontSize=12;fontStyle=0;aspect=fixed;pointerEvents=1;shape=mxgraph.aws4.container_2;" vertex="1" parent="_QfsnRnrjYnlIOJWHaD2-17">
          <mxGeometry x="190" y="99.5" width="48" height="31" as="geometry" />
        </mxCell>
        <mxCell id="_QfsnRnrjYnlIOJWHaD2-21" value="" style="rounded=1;arcSize=10;dashed=1;strokeColor=#F59D56;fillColor=none;gradientColor=none;dashPattern=8 4;strokeWidth=2;" vertex="1" parent="_QfsnRnrjYnlIOJWHaD2-17">
          <mxGeometry x="10" y="60" width="240" height="154.75" as="geometry" />
        </mxCell>
        <mxCell id="_QfsnRnrjYnlIOJWHaD2-4" value="Public subnet" style="points=[[0,0],[0.25,0],[0.5,0],[0.75,0],[1,0],[1,0.25],[1,0.5],[1,0.75],[1,1],[0.75,1],[0.5,1],[0.25,1],[0,1],[0,0.75],[0,0.5],[0,0.25]];outlineConnect=0;gradientColor=none;html=1;whiteSpace=wrap;fontSize=12;fontStyle=0;container=1;pointerEvents=0;collapsible=0;recursiveResize=0;shape=mxgraph.aws4.group;grIcon=mxgraph.aws4.group_security_group;grStroke=0;strokeColor=#248814;fillColor=#E9F3E6;verticalAlign=top;align=left;spacingLeft=30;fontColor=#248814;dashed=0;" vertex="1" parent="_QfsnRnrjYnlIOJWHaD2-2">
          <mxGeometry x="30" y="30" width="230" height="210" as="geometry" />
        </mxCell>
        <mxCell id="_QfsnRnrjYnlIOJWHaD2-24" value="" style="sketch=0;outlineConnect=0;fontColor=#232F3E;gradientColor=none;fillColor=#4D27AA;strokeColor=none;dashed=0;verticalLabelPosition=bottom;verticalAlign=top;align=center;html=1;fontSize=12;fontStyle=0;aspect=fixed;pointerEvents=1;shape=mxgraph.aws4.nat_gateway;" vertex="1" parent="_QfsnRnrjYnlIOJWHaD2-4">
          <mxGeometry x="80" y="66" width="78" height="78" as="geometry" />
        </mxCell>
        <mxCell id="_QfsnRnrjYnlIOJWHaD2-37" style="edgeStyle=orthogonalEdgeStyle;rounded=0;orthogonalLoop=1;jettySize=auto;html=1;" edge="1" parent="_QfsnRnrjYnlIOJWHaD2-2" source="_QfsnRnrjYnlIOJWHaD2-27" target="_QfsnRnrjYnlIOJWHaD2-3">
          <mxGeometry relative="1" as="geometry" />
        </mxCell>
        <mxCell id="_QfsnRnrjYnlIOJWHaD2-27" value="" style="outlineConnect=0;dashed=0;verticalLabelPosition=bottom;verticalAlign=top;align=center;html=1;shape=mxgraph.aws3.application_load_balancer;fillColor=#F58534;gradientColor=none;" vertex="1" parent="_QfsnRnrjYnlIOJWHaD2-2">
          <mxGeometry x="240" y="40" width="70" height="72" as="geometry" />
        </mxCell>
        <mxCell id="_QfsnRnrjYnlIOJWHaD2-30" style="edgeStyle=orthogonalEdgeStyle;rounded=0;orthogonalLoop=1;jettySize=auto;html=1;" edge="1" parent="_QfsnRnrjYnlIOJWHaD2-2" source="_QfsnRnrjYnlIOJWHaD2-21" target="_QfsnRnrjYnlIOJWHaD2-26">
          <mxGeometry relative="1" as="geometry" />
        </mxCell>
        <mxCell id="_QfsnRnrjYnlIOJWHaD2-31" style="edgeStyle=orthogonalEdgeStyle;rounded=0;orthogonalLoop=1;jettySize=auto;html=1;exitX=0.25;exitY=0;exitDx=0;exitDy=0;" edge="1" parent="_QfsnRnrjYnlIOJWHaD2-2" source="_QfsnRnrjYnlIOJWHaD2-16" target="_QfsnRnrjYnlIOJWHaD2-24">
          <mxGeometry relative="1" as="geometry">
            <Array as="points">
              <mxPoint x="160" y="330" />
              <mxPoint x="160" y="252" />
              <mxPoint x="149" y="252" />
            </Array>
          </mxGeometry>
        </mxCell>
        <mxCell id="_QfsnRnrjYnlIOJWHaD2-29" style="edgeStyle=orthogonalEdgeStyle;rounded=0;orthogonalLoop=1;jettySize=auto;html=1;" edge="1" parent="1" source="_QfsnRnrjYnlIOJWHaD2-23" target="_QfsnRnrjYnlIOJWHaD2-27">
          <mxGeometry relative="1" as="geometry" />
        </mxCell>
        <mxCell id="_QfsnRnrjYnlIOJWHaD2-23" value="" style="sketch=0;outlineConnect=0;fontColor=#232F3E;gradientColor=none;fillColor=#4D27AA;strokeColor=none;dashed=0;verticalLabelPosition=bottom;verticalAlign=top;align=center;html=1;fontSize=12;fontStyle=0;aspect=fixed;pointerEvents=1;shape=mxgraph.aws4.internet_gateway;" vertex="1" parent="1">
          <mxGeometry x="360" width="70" height="70" as="geometry" />
        </mxCell>
        <mxCell id="_QfsnRnrjYnlIOJWHaD2-32" style="edgeStyle=orthogonalEdgeStyle;rounded=0;orthogonalLoop=1;jettySize=auto;html=1;" edge="1" parent="1" source="_QfsnRnrjYnlIOJWHaD2-24" target="_QfsnRnrjYnlIOJWHaD2-1">
          <mxGeometry relative="1" as="geometry" />
        </mxCell>
        <mxCell id="_QfsnRnrjYnlIOJWHaD2-33" style="edgeStyle=orthogonalEdgeStyle;rounded=0;orthogonalLoop=1;jettySize=auto;html=1;" edge="1" parent="1" source="_QfsnRnrjYnlIOJWHaD2-26">
          <mxGeometry relative="1" as="geometry">
            <mxPoint x="480" y="40" as="targetPoint" />
          </mxGeometry>
        </mxCell>
      </root>
    </mxGraphModel>
  </diagram>
</mxfile>
